<svg aria-hidden="true" style="position:absolute;width:0;height:0" xmlns="http://www.w3.org/2000/svg" overflow="hidden">
  <defs>
<symbol id="icon-brackets" viewBox="0 0 43 32"><path fill="var(--color1, #e1e1e1)" d="M32.014 0c1.929 0 3.75.52 5.464 1.561s3.107 2.537 4.179 4.488C42.686 8 43.2 10.298 43.2 12.943s-.643 5.225-1.929 7.74c-.429.911-1.2 2.081-2.314 3.512a63.368 63.368 0 01-3.214 3.707L31.693 32 28.8 27.187a22.03 22.03 0 005.336-4.683c1.543-1.821 2.314-3.491 2.314-5.008 0-.78-.171-1.409-.514-1.886a8.359 8.359 0 01-5.014 1.626c-1.329 0-2.593-.412-3.793-1.236a8.555 8.555 0 01-2.957-3.122c-.771-1.258-1.157-2.558-1.157-3.902 0-1.518.45-2.97 1.35-4.358a10.222 10.222 0 013.407-3.382C29.143.412 30.558 0 32.015 0zM8.936 0c1.929 0 3.75.52 5.464 1.561s3.107 2.537 4.179 4.488c1.029 1.951 1.543 4.249 1.543 6.894 0 1.864-.236 3.534-.707 5.008-.471 1.518-1.286 3.1-2.443 4.748-1.114 1.561-2.164 2.862-3.15 3.902-.986 1.084-2.7 2.884-5.143 5.398l-2.893-4.813a22.03 22.03 0 005.336-4.683c1.543-1.821 2.314-3.491 2.314-5.008 0-.78-.171-1.409-.514-1.886a8.359 8.359 0 01-5.014 1.626c-1.329 0-2.593-.412-3.793-1.236a8.555 8.555 0 01-2.957-3.122C.387 11.619.001 10.319.001 8.975c0-1.518.429-2.97 1.286-4.358S3.28 2.102 4.694 1.235C6.065.411 7.48-.001 8.937-.001z"/></symbol>
<symbol id="icon-burger" viewBox="0 0 32 32"><path fill="none" stroke="var(--color2, #d41443)" stroke-width="1.6" d="M0 6.4h32M0 16h32M0 25.6h32"/></symbol>
<symbol id="icon-close" viewBox="0 0 32 32"><path fill="none" stroke="var(--color3, #fff)" stroke-width="2" d="M2.519 2l26.963 28M2 29.481L30 2.518"/></symbol>
<symbol id="icon-close2" viewBox="0 0 32 32"><path fill="none" stroke-width="2" d="M2.519 2l26.963 28M2 29.481L30 2.518"/></symbol>
<symbol id="icon-facebook" viewBox="0 0 32 32"><path  d="M15.972 31.515c8.569 0 15.515-6.946 15.515-15.515S24.541.485 15.972.485.457 7.431.457 16s6.946 15.515 15.515 15.515z"/><path fill="var(--color3, #fff)" d="M20.282 15.982h-2.531v9.327h-3.835v-9.327h-1.824v-3.278h1.824v-2.121c0-1.517.716-3.892 3.869-3.892l2.841.012v3.182h-2.061c-.338 0-.813.17-.813.893v1.929h2.866l-.335 3.275z"/></symbol>
<symbol id="icon-github" viewBox="0 0 32 32"><path  d="M32 16c0 8.837-7.163 16-16 16S0 24.837 0 16 7.163 0 16 0s16 7.163 16 16z"/><path fill="var(--color3, #fff)" d="M16 6.588c-5.169 0-9.412 4.242-9.412 9.412 0 4.411 3.095 8.419 7.206 9.412v-3.114a2.307 2.307 0 01-1.197-.03c-.556-.164-1.008-.535-1.344-1.1-.214-.361-.593-.752-.988-.723l-.097-1.099c.855-.073 1.595.521 2.034 1.258.195.328.419.52.708.605.278.082.577.043.926-.081.088-.698.407-.959.649-1.326v-.001c-2.451-.366-3.428-1.666-3.816-2.693-.514-1.363-.238-3.066.671-4.142.018-.021.05-.076.037-.114-.417-1.258.091-2.3.11-2.41.481.142.559-.143 2.088.786l.264.159c.111.066.076.028.186.02A7.984 7.984 0 0116 11.129a8.016 8.016 0 012.002.285l.086.009c-.008-.001.023-.005.075-.036 1.911-1.157 1.842-.779 2.354-.946.018.111.519 1.169.107 2.411-.056.171 1.657 1.739.708 4.256-.388 1.027-1.365 2.328-3.816 2.693v.001c.314.479.692.734.69 1.722v3.887c4.111-.993 7.206-5 7.206-9.412 0-5.169-4.242-9.412-9.412-9.412z"/></symbol>
<symbol id="icon-white-ellipsis" viewBox="0 0 32 32"><path fill="var(--color3, #fff)" d="M19.692 16a3.692 3.692 0 11-7.384 0 3.692 3.692 0 017.384 0zM7.385 16a3.692 3.692 0 11-7.384 0 3.692 3.692 0 017.384 0zM32 16a3.692 3.692 0 11-7.384 0A3.692 3.692 0 0132 16z"/></symbol>
<symbol id="icon-red-ellipsis" viewBox="0 0 32 32"><path fill="var(--color5, #c7133e)" d="M18 16a2 2 0 11-3.999.001A2 2 0 0118 16zM4 16a2 2 0 11-3.999.001A2 2 0 014 16zM32 16a2 2 0 11-3.999.001A2 2 0 0132 16z"/></symbol>
<symbol id="icon-home" viewBox="0 0 32 32"><path fill="var(--color6, #d31342)" d="M30.129 15.447c.553-.6.5-1.52-.119-2.054L16.374 1.623c-.619-.534-1.611-.523-2.217.025L.475 14.02a1.414 1.414 0 00-.066 2.051l.343.352c.569.584 1.489.654 2.053.155l1.023-.903v13.224c0 .811.667 1.468 1.488 1.468h5.333c.822 0 1.488-.657 1.488-1.468v-9.252h6.803v9.252c-.012.811.576 1.468 1.398 1.468h5.652c.822 0 1.488-.657 1.488-1.468V15.861l.631.546c.349.302 1.078.06 1.631-.541l.388-.42z"/></symbol>
<symbol id="icon-telegram" viewBox="0 0 32 32"><path  d="M31.258 16c0 8.569-6.946 15.515-15.515 15.515S.228 24.569.228 16 7.174.485 15.743.485 31.258 7.431 31.258 16z"/><path fill="var(--color3, #fff)" d="M12.705 18.303l-.308 4.043c.441 0 .631-.177.86-.389l2.066-1.843 4.281 2.926c.785.408 1.338.193 1.55-.674l2.811-12.289c.249-1.083-.42-1.507-1.185-1.241L6.264 14.738c-1.127.408-1.11.995-.192 1.261l4.223 1.226 9.808-5.728c.462-.285.881-.127.536.158l-7.934 6.649z"/></symbol>
<symbol id="icon-arrowhead" viewBox="0 0 32 32"><path stroke-linejoin="round" stroke-linecap="round" stroke-width="6.4" d="M8.372 3.2L22.541 16 8.372 28.8"/></symbol>
<symbol id="icon-arrow" viewBox="0 0 32 32"><path d="M19.414 27.414l10-10a2 2 0 000-2.828l-10-10a2 2 0 10-2.828 2.828L23.172 14H4a2 2 0 100 4h19.172l-6.586 6.586c-.39.39-.586.902-.586 1.414s.195 1.024.586 1.414a2 2 0 002.828 0z"/></symbol>
<symbol id="icon-btn-bracket" viewBox="0 0 55.752 25.752"><path d="M43.006,23.916c-0.28-0.282-0.59-0.52-0.912-0.727L20.485,1.581c-2.109-2.107-5.527-2.108-7.637,0.001
        c-2.109,2.108-2.109,5.527,0,7.637l18.611,18.609L12.754,46.535c-2.11,2.107-2.11,5.527,0,7.637c1.055,1.053,2.436,1.58,3.817,1.58
        s2.765-0.527,3.817-1.582l21.706-21.703c0.322-0.207,0.631-0.444,0.912-0.727c1.08-1.08,1.598-2.498,1.574-3.912
        C44.605,26.413,44.086,24.993,43.006,23.916z"/></symbol>
<symbol id="icon-burger-2" viewBox="0 0 20 12"><path fill="none" stroke="var(--color2, #d41443)" d="M0 1H20M0 6H20M0 11H20"/></symbol>
  </defs>
</svg>