<!-- Generated by IcoMoon.io -->
<svg version="1.1" xmlns="http://www.w3.org/2000/svg"  viewBox="0 0 32 32">
<title>Group-4</title>
<path fill="#fff" d="M19.692 16c0 2.039-1.653 3.692-3.692 3.692s-3.692-1.653-3.692-3.692c0-2.039 1.653-3.692 3.692-3.692s3.692 1.653 3.692 3.692z"></path>
<path fill="#fff" d="M7.385 16c0 2.039-1.653 3.692-3.692 3.692s-3.692-1.653-3.692-3.692c0-2.039 1.653-3.692 3.692-3.692s3.692 1.653 3.692 3.692z"></path>
<path fill="#fff" d="M32 16c0 2.039-1.653 3.692-3.692 3.692s-3.692-1.653-3.692-3.692c0-2.039 1.653-3.692 3.692-3.692s3.692 1.653 3.692 3.692z"></path>
</svg>
